<svg xmlns="http://www.w3.org/2000/svg" viewBox="0 0 974.61 98.94"><defs><style>.cls-1{fill:#383690;}.cls-2{fill:#e5233c;}</style></defs><g id="Camada_2" data-name="Camada 2"><g id="Camada_1-2" data-name="Camada 1"><path class="cls-1" d="M650.37,7.58h9.06V81.37H651V32.14L634.13,81.37H625L608,31.82V81.37h-8.43V7.58h9.06L628.44,66a8.69,8.69,0,0,1,.53,2.63,8.93,8.93,0,0,1-.21,1.48l-.28,1.09a1.15,1.15,0,1,0,2.27.28,1.33,1.33,0,0,0,0-.28l-.28-1.09a8.93,8.93,0,0,1-.21-1.48,8.69,8.69,0,0,1,.53-2.63Z"/><path class="cls-1" d="M700.28,70.35a19.77,19.77,0,0,1-10.49,3,17,17,0,0,1-12.7-5.21q-5.12-5.22-6-13.76A26,26,0,0,0,679.56,59a31,31,0,0,0,9.81,1.58,32.06,32.06,0,0,0,12.23-2.37,22.58,22.58,0,0,0,9.32-6.8,15.91,15.91,0,0,0,3.54-10.23,16.89,16.89,0,0,0-3.38-10.06A23.85,23.85,0,0,0,702,23.65a27.43,27.43,0,0,0-12.23-2.79,25.18,25.18,0,0,0-13.92,4,27.76,27.76,0,0,0-9.75,11,33.78,33.78,0,0,0-3.53,15.49,33.79,33.79,0,0,0,3.53,15.5,27.67,27.67,0,0,0,9.75,11,25.19,25.19,0,0,0,13.92,4,27.5,27.5,0,0,0,23.4-12.86l-5.27-6.64A21.06,21.06,0,0,1,700.28,70.35ZM678.14,33.67a16.9,16.9,0,0,1,11.65-4.38A20.74,20.74,0,0,1,698,30.87a14.88,14.88,0,0,1,5.85,4.27A9.43,9.43,0,0,1,706,41.2a8.69,8.69,0,0,1-4.37,7.8,20.19,20.19,0,0,1-10.91,2.74,31.9,31.9,0,0,1-10.12-1.68,28.39,28.39,0,0,1-9-4.85A21,21,0,0,1,678.14,33.67Z"/><path class="cls-1" d="M762.89,32.61a22.06,22.06,0,0,1,3.22,11.65V81.37h-8.44V44.26a13.7,13.7,0,0,0-2.1-7.38,15.33,15.33,0,0,0-5.75-5.37,15.77,15.77,0,0,0-7.75-2,16.07,16.07,0,0,0-7.8,2,16.87,16.87,0,0,0-5.95,5.27,11.91,11.91,0,0,0-2.27,6.95V81.37h-8.43V21.28h8.43V23a3.33,3.33,0,0,1-.63,2,13.39,13.39,0,0,1-2.53,2.37l-1.25,1a1.2,1.2,0,1,0,1.56,1.82l1.61-1.46c2.25-3.09,2.1-2.93,5.71-4.79a25,25,0,0,1,23.62.31A23.38,23.38,0,0,1,762.89,32.61Z"/><path class="cls-1" d="M807,70.35a19.77,19.77,0,0,1-10.49,3,17.07,17.07,0,0,1-12.71-5.21q-5.12-5.22-6-13.76A26,26,0,0,0,786.24,59a30.91,30.91,0,0,0,9.81,1.58,32,32,0,0,0,12.22-2.37,22.55,22.55,0,0,0,9.33-6.8,15.9,15.9,0,0,0,3.53-10.23,16.88,16.88,0,0,0-3.37-10.06,23.81,23.81,0,0,0-9.07-7.49,27.39,27.39,0,0,0-12.22-2.79,25.18,25.18,0,0,0-13.92,4,27.61,27.61,0,0,0-9.75,11,33.78,33.78,0,0,0-3.53,15.49,33.79,33.79,0,0,0,3.53,15.5,27.52,27.52,0,0,0,9.75,11,25.19,25.19,0,0,0,13.92,4,27.5,27.5,0,0,0,23.4-12.86l-5.27-6.64A21.13,21.13,0,0,1,807,70.35ZM784.82,33.67a16.9,16.9,0,0,1,11.65-4.38,20.74,20.74,0,0,1,8.22,1.58,14.88,14.88,0,0,1,5.85,4.27,9.43,9.43,0,0,1,2.16,6.06,8.69,8.69,0,0,1-4.37,7.8,20.19,20.19,0,0,1-10.91,2.74,31.9,31.9,0,0,1-10.12-1.68,28.18,28.18,0,0,1-9-4.85A21,21,0,0,1,784.82,33.67Z"/><path class="cls-1" d="M843.27,72.93h30.57v8.44h-50.6l34.58-51.66,2.08-3.09A1.13,1.13,0,1,0,858,25.39l-.72,1.16c-.14.21-.41.65-.79,1.32a3.9,3.9,0,0,1-1.27,1.42,3,3,0,0,1-1.63.42H823.24V21.28h50.39L839.05,72.93,837,76a1.12,1.12,0,0,0,.93,1.75,1.14,1.14,0,0,0,1-.53l.72-1.15c.14-.22.4-.65.79-1.32a4,4,0,0,1,1.27-1.43A3,3,0,0,1,843.27,72.93Z"/><path class="cls-1" d="M908.36,70.35a19.72,19.72,0,0,1-10.49,3,17.07,17.07,0,0,1-12.7-5.21q-5.11-5.22-5.95-13.76A26,26,0,0,0,887.65,59a30.9,30.9,0,0,0,9.8,1.58,32,32,0,0,0,12.23-2.37,22.61,22.61,0,0,0,9.33-6.8,16,16,0,0,0,3.53-10.23,16.88,16.88,0,0,0-3.37-10.06,23.81,23.81,0,0,0-9.07-7.49,27.4,27.4,0,0,0-12.23-2.79,25.14,25.14,0,0,0-13.91,4,27.61,27.61,0,0,0-9.75,11,33.66,33.66,0,0,0-3.53,15.49,33.67,33.67,0,0,0,3.53,15.5,27.52,27.52,0,0,0,9.75,11,25.15,25.15,0,0,0,13.91,4,27.5,27.5,0,0,0,23.41-12.86L916,62.29A21.08,21.08,0,0,1,908.36,70.35ZM886.23,33.67a16.88,16.88,0,0,1,11.64-4.38,20.75,20.75,0,0,1,8.23,1.58A14.88,14.88,0,0,1,912,35.14a9.43,9.43,0,0,1,2.16,6.06,8.68,8.68,0,0,1-4.38,7.8,20.14,20.14,0,0,1-10.91,2.74,32,32,0,0,1-10.12-1.68,28.39,28.39,0,0,1-9-4.85A21.07,21.07,0,0,1,886.23,33.67Z"/><path class="cls-1" d="M971.29,58.28a11.29,11.29,0,0,1,2.59,7.38A14,14,0,0,1,971,74.3a18.24,18.24,0,0,1-7.8,5.85,28.92,28.92,0,0,1-11.17,2.06c-.71,0-1.9-.07-3.59-.21q-9.06-.85-15-5.48a21.82,21.82,0,0,1-7.8-11.91l8.44-3.27a16.63,16.63,0,0,0,5.79,9.22q4.11,3.1,11.49,3.11a20.28,20.28,0,0,0,9.65-2.16q4-2.16,4.37-5.43c.14-1.61-1.17-3.27-4-4.95A91,91,0,0,0,951.42,56l-3.26-1.37A93.68,93.68,0,0,1,937.88,50a26.57,26.57,0,0,1-7.43-5.8,10.49,10.49,0,0,1-2.74-8.28,14,14,0,0,1,3.47-8,20,20,0,0,1,8.17-5.48,31.27,31.27,0,0,1,11.23-1.95q10.13,0,16.18,4.85t7.85,14l-7.27,2.74Q964.7,29,950.69,29a21.3,21.3,0,0,0-10.28,2.31q-4.27,2.33-4.27,5.7c0,1.61,1,3,3,4.21a60.13,60.13,0,0,0,8.85,4.11l4.22,1.8,3.27,1.47A104.37,104.37,0,0,1,965,53.06,21.31,21.31,0,0,1,971.29,58.28Z"/><path class="cls-1" d="M0,6.48H49.23V15H8.56v28.2a1.34,1.34,0,0,0,2.68,0v-.6a2.64,2.64,0,0,1,.86-2.13,3.17,3.17,0,0,1,2.35-.85H31.79v8.56H8.56V72.83H49.23v8.56H0Z"/><rect class="cls-1" x="53.51" y="6.48" width="8.56" height="74.91"/><rect class="cls-1" x="66.35" y="20.39" width="8.56" height="61"/><path class="cls-1" d="M89.89,36.34q0,2.46,3,4.28a62.26,62.26,0,0,0,9,4.17l4.28,1.82,3.32,1.5a103.58,103.58,0,0,1,9.68,4.55,21.54,21.54,0,0,1,6.42,5.3,11.46,11.46,0,0,1,2.62,7.49,14.21,14.21,0,0,1-2.89,8.77,18.42,18.42,0,0,1-7.91,5.94,29.43,29.43,0,0,1-11.35,2.09c-.71,0-1.92-.08-3.64-.22q-9.19-.86-15.19-5.56A22,22,0,0,1,79.3,64.38l8.56-3.32a16.83,16.83,0,0,0,5.89,9.36q4.17,3.17,11.66,3.16a20.48,20.48,0,0,0,9.79-2.2c2.75-1.46,4.23-3.29,4.44-5.51.14-1.64-1.19-3.31-4-5a94.66,94.66,0,0,0-10.22-5.24l-3.32-1.39a96.29,96.29,0,0,1-10.43-4.66,27,27,0,0,1-7.55-5.88,10.69,10.69,0,0,1-2.78-8.4,14.17,14.17,0,0,1,3.53-8.08,20.3,20.3,0,0,1,8.3-5.57,31.72,31.72,0,0,1,11.39-2q10.28,0,16.43,4.93t8,14.23l-7.38,2.78q-2.68-13.38-16.91-13.37a21.54,21.54,0,0,0-10.43,2.35Q89.9,32.92,89.89,36.34Z"/><path class="cls-1" d="M154.27,8.41a10.72,10.72,0,0,1-7.61,3.15A10.76,10.76,0,0,1,157.42.81,10.72,10.72,0,0,1,154.27,8.41Z"/><path class="cls-1" d="M160.57,8.41a10.68,10.68,0,0,1-3.15-7.6,10.75,10.75,0,0,1,10.75,10.75A10.68,10.68,0,0,1,160.57,8.41Z"/><path class="cls-1" d="M179.41,30.13a20.15,20.15,0,0,0-8.72-7.33,31.63,31.63,0,0,0-13.38-2.62,32.73,32.73,0,0,0-12.09,2.19,22,22,0,0,0-8.78,5.94,12.27,12.27,0,0,0-3.21,8.14v1.71h8.56V36.45a4.93,4.93,0,0,1,2.14-3.7,17.05,17.05,0,0,1,5.73-2.89,25.41,25.41,0,0,1,7.65-1.12q8,0,12.31,3.32a10.78,10.78,0,0,1,4.28,9v3.1L159.66,47.9q-14.11,3.63-20.27,8.24t-6.16,11.34A13.54,13.54,0,0,0,138,78.23a17.74,17.74,0,0,0,12,4.12,26.06,26.06,0,0,0,6.85-1,34.23,34.23,0,0,0,17-11.66l2.54-3.67a1.21,1.21,0,0,1,1-.54,1.24,1.24,0,0,1,1.26,1.25,1.28,1.28,0,0,1-.21.71l-1.39,2L176,71a17.17,17.17,0,0,0-1.44,2.3,5,5,0,0,0-.64,2.3v5.78h8.56V41.05A19.67,19.67,0,0,0,179.41,30.13Zm-5.51,27.4a74.16,74.16,0,0,1-9.58,10.32,25.62,25.62,0,0,1-8.08,4.77,18.46,18.46,0,0,1-6,1.07,10.4,10.4,0,0,1-6.1-1.66,5.28,5.28,0,0,1-2.36-4.55c0-2.14,1.38-4,4.12-5.67s7.33-3.32,13.75-5L173.9,53Z"/><path class="cls-1" d="M232.7,31.9A22.38,22.38,0,0,1,236,43.72V81.39H227.4V43.72a13.85,13.85,0,0,0-2.14-7.49,15.64,15.64,0,0,0-5.83-5.46,16.1,16.1,0,0,0-7.86-2,16.38,16.38,0,0,0-7.92,2,17.23,17.23,0,0,0-6.05,5.35,12.24,12.24,0,0,0-2.3,7.07v38.2h-8.56v-61h8.56v1.72a3.36,3.36,0,0,1-.64,2,13.53,13.53,0,0,1-2.57,2.4l-1.26,1a1.2,1.2,0,0,0-.45.94,1.21,1.21,0,0,0,1.22,1.22,1.19,1.19,0,0,0,.81-.32L194,27.88c2.28-3.14,2.13-3,5.8-4.86a25.38,25.38,0,0,1,24,.32A23.85,23.85,0,0,1,232.7,31.9Z"/><path class="cls-1" d="M280.91,20.39v6a24.72,24.72,0,0,0-7.22-4.71,21,21,0,0,0-8.3-1.71,22.58,22.58,0,0,0-12.52,3.74,27.14,27.14,0,0,0-9.2,10.11,29.69,29.69,0,0,0,0,27.67,27.47,27.47,0,0,0,9.2,10.22,22.4,22.4,0,0,0,12.52,3.8A18.88,18.88,0,0,0,277,72.08c3.55-2.64,2.32-1.26,5.34-4.75l1.31-1.81a1.23,1.23,0,0,1,2.23.72,1.28,1.28,0,0,1-.33.85l-1.38,1.46a15.28,15.28,0,0,0-2.3,3.21,6.41,6.41,0,0,0-.91,2.89v2.89A11,11,0,0,1,278.82,84a14.16,14.16,0,0,1-5.67,4.71,17.77,17.77,0,0,1-7.76,1.71,15.43,15.43,0,0,1-9.09-2.62q-3.75-2.62-3.75-6.37H244a15.39,15.39,0,0,0,2.78,8.94,19,19,0,0,0,7.71,6.31,25.51,25.51,0,0,0,10.91,2.3,26.29,26.29,0,0,0,12.15-2.83A22.54,22.54,0,0,0,286,88.72,20.69,20.69,0,0,0,289.47,77V20.39Zm-4.17,41.36a13.78,13.78,0,0,1-11.35,5.19,15.48,15.48,0,0,1-8.61-2.46,16.27,16.27,0,0,1-5.89-6.85,22.88,22.88,0,0,1-2.08-10,22.57,22.57,0,0,1,2.08-9.9A16.34,16.34,0,0,1,256.78,31a15.48,15.48,0,0,1,8.61-2.46,13.74,13.74,0,0,1,11.24,5.29q4.28,5.31,4.28,13.86Q280.91,56.56,276.74,61.75Z"/><path class="cls-1" d="M330.94,70.21a20.07,20.07,0,0,1-10.65,3.05A17.3,17.3,0,0,1,307.4,68q-5.2-5.29-6-14a26.32,26.32,0,0,0,8.56,4.7,31.28,31.28,0,0,0,9.95,1.61,32.44,32.44,0,0,0,12.42-2.41,22.88,22.88,0,0,0,9.47-6.9,16.18,16.18,0,0,0,3.58-10.38,17.18,17.18,0,0,0-3.42-10.22,24.28,24.28,0,0,0-9.21-7.6A27.79,27.79,0,0,0,320.29,20,25.49,25.49,0,0,0,306.17,24a27.93,27.93,0,0,0-9.9,11.13,34.13,34.13,0,0,0-3.59,15.73,34.13,34.13,0,0,0,3.59,15.73,27.93,27.93,0,0,0,9.9,11.13,25.5,25.5,0,0,0,14.12,4.07,27.89,27.89,0,0,0,23.76-13.06L338.7,62A21.43,21.43,0,0,1,330.94,70.21ZM308.47,33a17.14,17.14,0,0,1,11.82-4.44,21,21,0,0,1,8.35,1.6,15.15,15.15,0,0,1,5.94,4.34,9.55,9.55,0,0,1,2.19,6.15,8.84,8.84,0,0,1-4.44,7.92,20.54,20.54,0,0,1-11.08,2.78A32.34,32.34,0,0,1,311,49.61a28.75,28.75,0,0,1-9.1-4.92A21.36,21.36,0,0,1,308.47,33Z"/><rect class="cls-1" x="348.54" y="6.48" width="8.56" height="74.91"/><path class="cls-1" d="M407.56,30.13a20.2,20.2,0,0,0-8.72-7.33,31.63,31.63,0,0,0-13.38-2.62,32.73,32.73,0,0,0-12.09,2.19,22,22,0,0,0-8.78,5.94,12.27,12.27,0,0,0-3.21,8.14v1.71h8.56V36.45a4.9,4.9,0,0,1,2.14-3.7,17.05,17.05,0,0,1,5.73-2.89,25.41,25.41,0,0,1,7.65-1.12q8,0,12.31,3.32a10.78,10.78,0,0,1,4.28,9v3.1L387.81,47.9q-14.12,3.63-20.28,8.24t-6.15,11.34a13.54,13.54,0,0,0,4.76,10.75,17.74,17.74,0,0,0,12,4.12,26.06,26.06,0,0,0,6.85-1,34.34,34.34,0,0,0,17-11.66l2.53-3.67a1.22,1.22,0,0,1,1-.54,1.25,1.25,0,0,1,1.27,1.25,1.22,1.22,0,0,1-.22.71l-1.38,2L404.13,71a17.17,17.17,0,0,0-1.44,2.3,5,5,0,0,0-.64,2.3v5.78h8.56V41.05A19.67,19.67,0,0,0,407.56,30.13Zm-5.51,27.4a74.77,74.77,0,0,1-9.58,10.32,25.62,25.62,0,0,1-8.08,4.77,18.46,18.46,0,0,1-6,1.07A10.4,10.4,0,0,1,372.3,72a5.28,5.28,0,0,1-2.36-4.55c0-2.14,1.38-4,4.12-5.67s7.33-3.32,13.75-5L402.05,53Z"/><path class="cls-1" d="M70.63,9.19a1.91,1.91,0,0,0,0-2.7A1.92,1.92,0,0,0,70.63,9.19Z"/><path class="cls-1" d="M70.63,15.05a1.91,1.91,0,0,0,0-2.7A1.92,1.92,0,0,0,70.63,15.05Z"/><path class="cls-1" d="M72.21,10.77a1.91,1.91,0,0,0,2.7,0A1.9,1.9,0,0,0,72.21,10.77Z"/><path class="cls-1" d="M66.35,10.77a1.91,1.91,0,0,0,2.7,0A1.9,1.9,0,0,0,66.35,10.77Z"/><path class="cls-1" d="M71.75,9.65a1.89,1.89,0,0,0,1.35-.56,1.93,1.93,0,0,0,.56-1.35A1.91,1.91,0,0,0,71.75,9.65Z"/><path class="cls-1" d="M67.6,13.79a1.89,1.89,0,0,0,1.91-1.9A1.91,1.91,0,0,0,67.6,13.79Z"/><path class="cls-1" d="M71.75,11.89a1.89,1.89,0,0,0,1.91,1.9A1.91,1.91,0,0,0,71.75,11.89Z"/><path class="cls-1" d="M67.6,7.74a1.93,1.93,0,0,0,.56,1.35,1.91,1.91,0,0,0,1.35.56A1.91,1.91,0,0,0,67.6,7.74Z"/><circle class="cls-1" cx="70.63" cy="10.77" r="0.5"/><path class="cls-2" d="M501.29,76.48a19,19,0,0,0,19,19A19,19,0,0,0,501.29,76.48Z"/><path class="cls-2" d="M499.43,76.48A9.56,9.56,0,0,0,489.89,86,9.55,9.55,0,0,0,499.43,76.48Z"/><path class="cls-2" d="M482.08,65.38a19,19,0,0,0,0,26.86A19,19,0,0,0,482.08,65.38Z"/><path class="cls-2" d="M480.76,64.07a9.52,9.52,0,0,0-13.49,0A9.55,9.55,0,0,0,480.76,64.07Z"/><path class="cls-2" d="M476.34,43.94a19,19,0,0,0-19,19A19,19,0,0,0,476.34,43.94Z"/><path class="cls-2" d="M476.34,42.09a9.54,9.54,0,0,0-9.54-9.55A9.55,9.55,0,0,0,476.34,42.09Z"/><path class="cls-2" d="M487.45,24.73a19,19,0,0,0-26.86,0A19,19,0,0,0,487.45,24.73Z"/><path class="cls-2" d="M488.76,23.42a9.56,9.56,0,0,0,0-13.5A9.54,9.54,0,0,0,488.76,23.42Z"/><path class="cls-2" d="M508.89,19a19,19,0,0,0-19-19A19,19,0,0,0,508.89,19Z"/><path class="cls-2" d="M510.74,19a9.54,9.54,0,0,0,9.54-9.55A9.55,9.55,0,0,0,510.74,19Z"/><path class="cls-2" d="M528.1,30.1a19,19,0,0,0,0-26.86A19,19,0,0,0,528.1,30.1Z"/><path class="cls-2" d="M529.41,31.41a9.52,9.52,0,0,0,13.49,0A9.55,9.55,0,0,0,529.41,31.41Z"/><path class="cls-2" d="M533.83,51.54a19,19,0,0,0,19-19A19,19,0,0,0,533.83,51.54Z"/><path class="cls-2" d="M533.83,53.39a9.56,9.56,0,0,0,9.54,9.55A9.55,9.55,0,0,0,533.83,53.39Z"/><path class="cls-2" d="M522.73,70.75a19,19,0,0,0,26.86,0A19,19,0,0,0,522.73,70.75Z"/><path class="cls-2" d="M521.41,72.06a9.56,9.56,0,0,0,0,13.5A9.54,9.54,0,0,0,521.41,72.06Z"/><path class="cls-2" d="M505.09,39.84a9.56,9.56,0,0,0,0-13.5A9.54,9.54,0,0,0,505.09,39.84Z"/><path class="cls-2" d="M505.09,69.14a9.56,9.56,0,0,0,0-13.5A9.54,9.54,0,0,0,505.09,69.14Z"/><path class="cls-2" d="M513,47.74a9.55,9.55,0,0,0,13.49,0A9.53,9.53,0,0,0,513,47.74Z"/><path class="cls-2" d="M483.69,47.74a9.55,9.55,0,0,0,13.49,0A9.53,9.53,0,0,0,483.69,47.74Z"/><path class="cls-2" d="M510.68,42.15a9.54,9.54,0,0,0,9.54-9.54A9.54,9.54,0,0,0,510.68,42.15Z"/><path class="cls-2" d="M490,62.87a9.54,9.54,0,0,0,9.54-9.54A9.54,9.54,0,0,0,490,62.87Z"/><path class="cls-2" d="M510.68,53.33a9.53,9.53,0,0,0,9.54,9.54A9.54,9.54,0,0,0,510.68,53.33Z"/><path class="cls-2" d="M490,32.61a9.53,9.53,0,0,0,9.54,9.54A9.54,9.54,0,0,0,490,32.61Z"/><circle class="cls-2" cx="505.09" cy="47.74" r="2.49"/></g></g></svg>